<svg width="24" height="25" viewBox="0 0 24 25" fill="none" xmlns="http://www.w3.org/2000/svg">
<g id="Group">
<path id="Path" fill-rule="evenodd" clip-rule="evenodd" d="M7.496 3.30664H16.505C18.987 3.30664 21 5.31864 21 7.80264V16.8116C21 19.2936 18.988 21.3066 16.504 21.3066H7.496C5.013 21.3066 3 19.2946 3 16.8106V7.80264C3 5.31964 5.012 3.30664 7.496 3.30664V3.30664Z" stroke="#00FF00" stroke-width="1.5" stroke-linecap="round" stroke-linejoin="round"/>
<path id="Path_2" d="M16.949 7.01943C16.763 7.02043 16.612 7.17143 16.612 7.35743C16.612 7.54343 16.764 7.69443 16.95 7.69443C17.136 7.69443 17.287 7.54343 17.287 7.35743C17.288 7.17043 17.136 7.01943 16.949 7.01943" stroke="#00FF00" stroke-width="1.5" stroke-linecap="round" stroke-linejoin="round"/>
<path id="Path_3" d="M14.5455 9.76096C15.9514 11.1669 15.9514 13.4462 14.5455 14.8521C13.1396 16.258 10.8602 16.258 9.45432 14.8521C8.04843 13.4462 8.04843 11.1669 9.45432 9.76096C10.8602 8.35507 13.1396 8.35507 14.5455 9.76096" stroke="#00FF00" stroke-width="1.5" stroke-linecap="round" stroke-linejoin="round"/>
</g>
</svg>
