<svg width="24" height="25" viewBox="0 0 24 25" fill="none" xmlns="http://www.w3.org/2000/svg">
<g id="Group">
<g id="Group_2">
<path id="Path" fill-rule="evenodd" clip-rule="evenodd" d="M21.583 6.67951C21.354 5.67551 20.676 4.88351 19.814 4.61151C18.255 4.12451 12 4.12451 12 4.12451C12 4.12451 5.748 4.12451 4.186 4.61151C3.327 4.87951 2.649 5.67151 2.417 6.67951C2 8.50151 2 12.3065 2 12.3065C2 12.3065 2 16.1115 2.417 17.9335C2.646 18.9375 3.324 19.7295 4.186 20.0015C5.748 20.4885 12 20.4885 12 20.4885C12 20.4885 18.255 20.4885 19.814 20.0015C20.673 19.7335 21.351 18.9415 21.583 17.9335C22 16.1115 22 12.3065 22 12.3065C22 12.3065 22 8.50151 21.583 6.67951Z" stroke="#00FF00" stroke-width="1.5" stroke-linecap="round" stroke-linejoin="round"/>
<path id="Path_2" fill-rule="evenodd" clip-rule="evenodd" d="M10.002 15.3066L15.198 12.3066L10.002 9.30664V15.3066Z" stroke="#00FF00" stroke-width="1.5" stroke-linecap="round" stroke-linejoin="round"/>
</g>
</g>
</svg>
